<svg id="visual" viewBox="0 0 1960 540" width="1960" height="540" xmlns="http://www.w3.org/2000/svg" xmlns:xlink="http://www.w3.org/1999/xlink" version="1.1"><rect x="0" y="0" width="1960" height="540" fill="#191922"></rect><defs><linearGradient id="grad1_0" x1="72.4%" y1="100%" x2="100%" y2="0%"><stop offset="-22.592592592592595%" stop-color="#191922" stop-opacity="1"></stop><stop offset="122.59259259259261%" stop-color="#191922" stop-opacity="1"></stop></linearGradient></defs><defs><linearGradient id="grad2_0" x1="0%" y1="100%" x2="27.6%" y2="0%"><stop offset="-22.592592592592595%" stop-color="#191922" stop-opacity="1"></stop><stop offset="122.59259259259261%" stop-color="#191922" stop-opacity="1"></stop></linearGradient></defs><g transform="translate(1960, 540)"><path d="M-351 0C-315.9 -26.6 -280.8 -53.1 -274.9 -89.3C-268.9 -125.5 -292.1 -171.3 -284 -206.3C-275.9 -241.4 -236.5 -265.7 -198.7 -273.4C-160.9 -281.2 -124.6 -272.3 -91.8 -282.5C-58.9 -292.6 -29.5 -321.8 0 -351L0 0Z" fill="#00A3FF"></path></g><g transform="translate(0, 0)"><path d="M351 0C353.9 40.5 356.7 80.9 333.8 108.5C310.9 136 262.2 150.7 230.6 167.5C198.9 184.4 184.3 203.5 166.9 229.8C149.5 256.1 129.3 289.6 101 311C72.8 332.4 36.4 341.7 0 351L0 0Z" fill="#00A3FF"></path></g></svg>